<svg width="11" height="11" viewBox="0 0 11 11" fill="none" xmlns="http://www.w3.org/2000/svg">
<g clip-path="url(#clip0_103_8692)">
<path d="M9.95056 9.29957L8.25014 7.6129C8.91018 6.78992 9.22983 5.74533 9.14334 4.69392C9.05686 3.6425 8.57082 2.66418 7.78517 1.96012C6.99952 1.25605 5.97397 0.879762 4.9194 0.908619C3.86482 0.937476 2.86139 1.36929 2.11541 2.11526C1.36944 2.86123 0.937628 3.86467 0.908772 4.91924C0.879915 5.97382 1.2562 6.99936 1.96027 7.78502C2.66433 8.57067 3.64265 9.05671 4.69407 9.14319C5.74548 9.22968 6.79008 8.91003 7.61306 8.24999L9.29972 9.93665C9.34233 9.97961 9.39302 10.0137 9.44887 10.037C9.50473 10.0602 9.56463 10.0722 9.62514 10.0722C9.68564 10.0722 9.74555 10.0602 9.8014 10.037C9.85726 10.0137 9.90795 9.97961 9.95056 9.93665C10.0332 9.85119 10.0793 9.73698 10.0793 9.61811C10.0793 9.49925 10.0332 9.38503 9.95056 9.29957ZM5.04181 8.24999C4.40726 8.24999 3.78696 8.06182 3.25935 7.70929C2.73174 7.35675 2.32052 6.85568 2.07769 6.26943C1.83486 5.68318 1.77133 5.03809 1.89512 4.41574C2.01891 3.79338 2.32448 3.22171 2.77317 2.77302C3.22187 2.32433 3.79354 2.01876 4.41589 1.89497C5.03825 1.77117 5.68334 1.83471 6.26958 2.07754C6.85583 2.32037 7.3569 2.73159 7.70944 3.2592C8.06197 3.78681 8.25014 4.40711 8.25014 5.04165C8.25014 5.89256 7.91212 6.70861 7.31044 7.31029C6.70876 7.91197 5.89271 8.24999 5.04181 8.24999Z" fill="#818589"/>
</g>
<defs>
<clipPath id="clip0_103_8692">
<rect width="11" height="11" fill="white"/>
</clipPath>
</defs>
</svg>
